<svg width="198" height="72" viewBox="0 0 198 72" fill="none" xmlns="http://www.w3.org/2000/svg">
<path d="M180.532 0C189.921 0 197.532 7.61116 197.532 17V54.416C197.532 63.8047 189.921 71.416 180.532 71.416H17C7.61131 71.416 0.000235055 63.8046 0 54.416V17C5.19733e-06 7.61116 7.61116 0 17 0H180.532ZM69.8203 22.0635V25.8623H77.6611V27.0771H71.1572V36.042H78.4707C78.1797 36.5236 77.8718 37.02 77.5469 37.5312H69.334V41.0566H75.2217C75.1939 41.0969 75.1665 41.1375 75.1387 41.1777C74.4094 42.2311 73.7305 43.1633 73.1025 43.9736L77.3877 45.25C77.4409 45.1791 77.4929 45.106 77.5469 45.0332C78.0248 45.153 78.5011 45.2743 78.9756 45.3984C78.8129 45.4314 78.6482 45.4632 78.4814 45.4932C76.1111 45.9186 73.274 46.1929 69.9717 46.3145C70.316 46.7803 70.6405 47.3573 70.9443 48.0459C71.2482 48.7549 71.4715 49.4338 71.6133 50.082C74.409 49.8592 76.9009 49.5458 79.0889 49.1406C81.2769 48.7354 83.202 48.1678 84.8633 47.4385C85.0248 47.3676 85.1827 47.2913 85.3398 47.2158C86.4705 47.5635 87.5574 47.9111 88.6006 48.2588C90.5455 48.9274 92.2273 49.556 93.6455 50.1436L96.29 46.5576C94.8111 46.0309 93.0481 45.4632 91.002 44.8555C90.4446 44.6899 89.8781 44.5239 89.3027 44.3584C90.1765 43.4361 90.9433 42.3354 91.6055 41.0566H97.3838V37.5312H82.5596C82.8734 37.0286 83.1786 36.5321 83.4756 36.042H95.8643V27.0771H88.6006V25.8623H96.6543V22.0635H69.8203ZM50.5225 21.2119C49.4487 21.5563 48.2433 21.8907 46.9062 22.2148C45.5692 22.5187 44.1714 22.7921 42.7129 23.0352C41.2543 23.2783 39.8056 23.4915 38.3672 23.6738C38.6103 24.16 38.8536 24.7678 39.0967 25.4971C39.36 26.2262 39.5322 26.8542 39.6133 27.3809C41.0459 27.2453 42.5247 27.0718 44.0498 26.8623V29.5693H38.7012V33.7324H44.0498V37.123C43.4731 37.2104 42.9056 37.2972 42.3477 37.3799C40.7272 37.6027 39.2991 37.795 38.0635 37.957L39.0967 42.4238C40.4337 42.1807 41.8825 41.9174 43.4424 41.6338C43.644 41.5945 43.8465 41.5559 44.0498 41.5166V44.916C44.0498 45.1591 43.9988 45.3313 43.8975 45.4326C43.7961 45.5136 43.6038 45.5547 43.3203 45.5547C43.0569 45.5749 42.5402 45.585 41.7705 45.585C41.0007 45.5647 40.2207 45.5337 39.4307 45.4932C39.6535 45.8983 39.8658 46.3749 40.0684 46.9219C40.2912 47.4486 40.4844 47.9752 40.6465 48.502C40.8086 49.049 40.9197 49.5355 40.9805 49.9609C42.2163 49.9609 43.3105 49.8999 44.2627 49.7783C45.2146 49.677 46.035 49.4546 46.7236 49.1104C47.4124 48.766 47.8789 48.2693 48.1221 47.6211C48.3854 46.9728 48.5166 46.0908 48.5166 44.9766V40.6748C50.0951 40.3664 51.6554 40.0584 53.1973 39.75L52.8936 35.7383C51.4551 35.9698 49.9956 36.1992 48.5166 36.4307V33.7324H54.2354C54.2736 34.0477 54.3103 34.3621 54.3516 34.6748C54.6352 36.8223 55.0006 38.8285 55.4463 40.6924C55.5205 40.989 55.5965 41.2801 55.6748 41.5654C55.1386 41.9906 54.5871 42.3998 54.0176 42.7891C52.4172 43.8627 50.7661 44.7739 49.0645 45.5234C49.6114 46.0299 50.1581 46.6177 50.7051 47.2861C51.2521 47.9547 51.6876 48.5633 52.0117 49.1104C53.8103 48.1511 55.529 47.042 57.1699 45.7871C57.7994 47.1027 58.5204 48.1402 59.3359 48.8975C60.1868 49.7077 61.149 50.1123 62.2227 50.1123C63.2356 50.1123 64.0765 49.9301 64.7451 49.5654C65.4136 49.2007 65.9403 48.522 66.3252 47.5293C66.7303 46.5569 67.0447 45.1491 67.2676 43.3057C66.7004 43.0626 66.0724 42.708 65.3838 42.2422C64.7153 41.756 64.1476 41.2594 63.6816 40.7529C63.6006 42.4747 63.4784 43.7204 63.3164 44.4902C63.1543 45.2398 62.9421 45.6152 62.6787 45.6152C62.233 45.6152 61.7775 45.1487 61.3115 44.2168C61.1076 43.7812 60.9057 43.2757 60.7061 42.7002C61.1093 42.2947 61.5048 41.8799 61.8887 41.4521C63.3271 39.8516 64.5835 38.0988 65.6572 36.1943L61.7666 34.5225C61.1189 35.7147 60.3517 36.8413 59.4688 37.9053C59.2785 36.9218 59.102 35.8751 58.9404 34.7656C58.8907 34.424 58.8438 34.0795 58.7979 33.7324H66.3555V29.5693H58.3506C58.3123 29.1176 58.2747 28.662 58.2422 28.2021C58.1004 25.8926 58.0593 23.6131 58.1201 21.3643H53.501C53.5212 23.5523 53.5923 25.7808 53.7139 28.0498C53.7457 28.5594 53.7823 29.0659 53.8213 29.5693H48.5166V26.1396C48.6889 26.1075 48.8621 26.077 49.0342 26.0439C50.6143 25.7401 52.1032 25.3856 53.501 24.9805L50.5225 21.2119ZM120.936 41.0566C119.801 42.1911 118.322 43.1232 116.499 43.8525C114.676 44.5819 112.639 45.1595 110.391 45.585C108.162 45.9902 105.832 46.2935 103.4 46.4961C103.806 46.9823 104.181 47.5599 104.525 48.2285C104.89 48.897 105.163 49.4948 105.346 50.0215C108 49.6771 110.512 49.2215 112.882 48.6543C115.272 48.087 117.451 47.3272 119.416 46.375C121.401 45.4228 123.093 44.2174 124.491 42.7588L120.936 41.0566ZM138.865 21.4248C138.278 21.8907 137.559 22.3974 136.708 22.9443C136.305 23.2033 135.903 23.4447 135.505 23.6719L133.152 23.0664L133.618 39.3242H130.934V43.3965H138.229C137.865 43.6213 137.469 43.8553 137.042 44.0957C136.09 44.6427 135.077 45.1693 134.003 45.6758C132.949 46.1823 131.936 46.6077 130.964 46.9521C131.511 47.3573 132.119 47.8539 132.787 48.4414C133.456 49.0289 133.993 49.5455 134.398 49.9912C135.31 49.6266 136.292 49.1809 137.346 48.6543C138.419 48.1478 139.474 47.6102 140.507 47.043C141.56 46.4758 142.492 45.929 143.303 45.4023L140.585 43.3965H148.976L146.646 45.4326C147.638 45.8985 148.641 46.4153 149.653 46.9824C150.687 47.5294 151.65 48.067 152.541 48.5938C153.452 49.1405 154.202 49.6164 154.789 50.0215L159.257 47.0127C158.548 46.6075 157.677 46.1519 156.644 45.6455C155.61 45.1188 154.516 44.5821 153.361 44.0352C152.912 43.8143 152.468 43.602 152.03 43.3965H159.257V39.3242H156.44C156.48 38.6109 156.518 37.851 156.552 37.0449C156.613 35.5863 156.664 34.0565 156.704 32.4561C156.745 30.8354 156.775 29.2044 156.795 27.5635C156.815 25.9226 156.825 24.3426 156.825 22.8232H149.715V26.5908H152.79C152.788 26.892 152.788 27.1961 152.784 27.5029C152.781 27.7966 152.776 28.0902 152.771 28.3838H150.109V31.9697H152.676C152.671 32.1015 152.667 32.2334 152.662 32.3652C152.649 32.8883 152.633 33.4049 152.615 33.915H150.109V37.501H152.447C152.41 38.1347 152.373 38.7425 152.332 39.3242H149.259V29.0527H144.883V27.5938H149.106V24.0078H144.883V21.5469H141.175V23.6689L138.865 21.4248ZM117.775 38.0479C116.884 38.7367 115.729 39.3653 114.311 39.9326C112.913 40.4796 111.403 40.9452 109.782 41.3301C108.162 41.715 106.572 42.0193 105.012 42.2422C105.417 42.6878 105.821 43.2046 106.227 43.792C106.632 44.3593 106.946 44.8758 107.169 45.3418C108.871 44.9974 110.563 44.5719 112.244 44.0654C113.946 43.5387 115.547 42.91 117.046 42.1807C118.565 41.4514 119.892 40.6212 121.026 39.6895L117.775 38.0479ZM86.6562 41.0566C86.0878 41.8458 85.4253 42.519 84.668 43.0771C84.6115 43.0621 84.5547 43.0473 84.498 43.0322C82.9089 42.6103 81.3294 42.2188 79.7598 41.8555C79.936 41.5913 80.1145 41.3258 80.292 41.0566H86.6562ZM118.809 27.9287C118.707 28.4149 118.575 28.9516 118.413 29.5391C118.251 30.1266 118.079 30.7143 117.896 31.3018C117.858 31.4227 117.817 31.5409 117.777 31.6572C117.087 31.0045 116.436 30.2998 115.83 29.5391H112.001C111.678 29.9947 111.313 30.4457 110.908 30.8945C110.665 30.3091 110.412 29.7657 110.147 29.2656L107.078 30.0859C107.3 30.5422 107.506 31.0332 107.702 31.5566C107.131 31.6079 106.565 31.6597 106.005 31.7109C106.008 31.7061 106.012 31.7011 106.015 31.6963L107.655 28.9619L103.705 28.0801C103.563 28.5866 103.38 29.1442 103.157 29.752C102.955 30.3394 102.722 30.9272 102.459 31.5146C102.383 31.6993 102.303 31.8781 102.225 32.0527C101.499 32.1149 100.828 32.1688 100.21 32.2129L100.544 35.2822C101.78 35.1404 103.117 34.9892 104.556 34.8271C105.202 34.7453 105.852 34.6639 106.506 34.582C105.905 34.972 105.276 35.349 104.616 35.708C103.016 36.5589 101.314 37.2377 99.5107 37.7441C99.8551 38.1493 100.21 38.6559 100.574 39.2637C100.959 39.8714 101.243 40.4081 101.426 40.874C103.127 40.3068 104.789 39.6079 106.409 38.7773C106.411 38.7763 106.413 38.7745 106.415 38.7734C106.686 39.0339 106.958 39.3181 107.229 39.6279C107.655 40.1142 107.999 40.5506 108.263 40.9355C109.296 40.6519 110.37 40.3175 111.484 39.9326C112.619 39.5274 113.713 39.081 114.767 38.5947C115.84 38.0883 116.803 37.5416 117.653 36.9541L114.584 35.374C113.936 35.7792 113.115 36.1737 112.122 36.5586C111.129 36.9435 110.086 37.2879 108.992 37.5918C108.683 37.6794 108.378 37.7616 108.078 37.8408C109.06 37.2544 109.982 36.6354 110.846 35.9814C112.183 34.9483 113.257 33.895 114.067 32.8213C114.959 33.9558 116.104 35.04 117.502 36.0732C118.92 37.086 120.439 37.9874 122.06 38.7773C123.701 39.5675 125.301 40.2062 126.861 40.6924C127.145 40.1656 127.469 39.598 127.834 38.9902C128.199 38.3824 128.583 37.8349 128.988 37.3486C127.347 36.984 125.726 36.4573 124.126 35.7686C123.27 35.4003 122.442 34.9813 121.639 34.5146C122.667 34.4046 123.709 34.2829 124.766 34.1543C124.965 34.6199 125.118 35.0462 125.221 35.4346L128.472 34.0977C128.269 33.3886 127.905 32.5877 127.378 31.6963C126.872 30.7849 126.335 29.9545 125.768 29.2051L122.729 30.3896C122.988 30.7791 123.24 31.1884 123.485 31.6172C122.736 31.6627 121.997 31.7065 121.269 31.752C121.319 31.654 121.371 31.5548 121.422 31.4531C121.888 30.5619 122.353 29.6705 122.819 28.7793L118.809 27.9287ZM141.175 32.4258H145.551V39.3242H144.548V33.2773H141.084V39.3242H137.539L137.487 37.4707H140.294V33.8848H137.387L137.333 31.9697H140.294V28.3838H137.232L137.187 26.7578C137.681 26.5624 138.19 26.3561 138.714 26.1357C139.555 25.7876 140.375 25.4223 141.175 25.043V32.4258ZM77.6611 30.5117V32.6387H75.29V30.5117H77.6611ZM84.4375 30.5117V32.6387H81.8242V30.5117H84.4375ZM91.458 30.5117V32.6387H88.6006V30.5117H91.458ZM58.7275 24.2207C59.2543 24.7069 59.7919 25.2436 60.3389 25.8311C60.8859 26.4186 61.3824 27.0062 61.8281 27.5938C62.2738 28.1813 62.6082 28.7188 62.8311 29.2051L66.3857 26.7432C66.1021 26.257 65.7176 25.7302 65.2314 25.1631C64.7452 24.5958 64.2186 24.0382 63.6514 23.4912C63.1044 22.9239 62.5668 22.4174 62.04 21.9717L58.7275 24.2207ZM108.628 20.9688C108.446 21.4752 108.212 22.0328 107.929 22.6406C107.67 23.2371 107.391 23.8234 107.094 24.4004C105.39 24.4482 103.856 24.4907 102.489 24.5244L102.702 28.0195C104.363 27.9385 106.238 27.8574 108.324 27.7764C110.411 27.6751 112.599 27.5639 114.888 27.4424C116.855 27.3388 118.808 27.2334 120.746 27.1299C121.255 27.6448 121.673 28.1128 121.999 28.5361L125.555 26.8955C125.089 26.3485 124.491 25.7508 123.762 25.1025C123.032 24.434 122.273 23.7753 121.482 23.127C120.692 22.4786 119.952 21.901 119.264 21.3945L115.951 22.8535C116.428 23.2113 116.913 23.6011 117.407 24.0195C116.561 24.056 115.711 24.0934 114.857 24.1299C113.763 24.1676 112.693 24.2084 111.646 24.2461C112.218 23.3809 112.773 22.4719 113.308 21.5166L108.628 20.9688ZM84.4375 25.8623V27.0771H81.8242V25.8623H84.4375Z" fill="white"/>
</svg>
