<svg width="198" height="72" viewBox="0 0 198 72" fill="none" xmlns="http://www.w3.org/2000/svg">
<path d="M180.766 0.292236C190.155 0.292236 197.766 7.9034 197.766 17.2922V54.7083C197.766 64.0969 190.155 71.7083 180.766 71.7083H17.2339C7.8452 71.7082 0.234122 64.0969 0.233887 54.7083V17.2922C0.233892 7.9034 7.84505 0.292236 17.2339 0.292236H180.766ZM70.0542 22.3547V26.1536H77.894V27.3694H71.3911V36.3342H78.7046C78.4136 36.8158 78.1056 37.3122 77.7808 37.8235H69.5679V41.3489H75.4556C75.4278 41.3892 75.4004 41.4298 75.3726 41.47C74.6433 42.5233 73.9644 43.4556 73.3364 44.2659L77.6206 45.5422C77.6738 45.4713 77.7258 45.3982 77.7798 45.3254C78.2586 45.4454 78.7361 45.5654 79.2114 45.6897C79.0481 45.7228 78.8828 45.7553 78.7153 45.7854C76.3449 46.2109 73.5079 46.4842 70.2056 46.6057C70.5499 47.0716 70.8744 47.6494 71.1782 48.3381C71.4821 49.0472 71.7054 49.726 71.8472 50.3743C74.6429 50.1514 77.1348 49.8371 79.3228 49.4319C81.5108 49.0267 83.4359 48.4601 85.0972 47.7307C85.2584 47.6599 85.4159 47.5834 85.5728 47.5081C86.7037 47.8559 87.791 48.2032 88.8345 48.551C90.7793 49.2196 92.4612 49.8473 93.8794 50.4348L96.5229 46.8489C95.0442 46.3222 93.2817 45.7554 91.2358 45.1477C90.6783 44.9821 90.1113 44.8163 89.5356 44.6506C90.4095 43.7283 91.1761 42.6277 91.8384 41.3489H97.6177V37.8235H82.7935C83.1072 37.321 83.4115 36.8242 83.7085 36.3342H96.0981V27.3694H88.8345V26.1536H96.8882V22.3547H70.0542ZM50.7563 21.5042C49.6826 21.8485 48.4772 22.1829 47.1401 22.5071C45.8031 22.8109 44.4053 23.0843 42.9468 23.3274C41.4882 23.5705 40.0394 23.7837 38.6011 23.9661C38.8441 24.4522 39.0865 25.0601 39.3296 25.7893C39.5929 26.5186 39.7661 27.1464 39.8472 27.6731C41.2798 27.5376 42.7586 27.3641 44.2837 27.1545V29.8616H38.9351V34.0247H44.2837V37.4143C43.7069 37.5017 43.1396 37.5885 42.5815 37.6711C40.9608 37.894 39.5322 38.0872 38.2964 38.2493L39.3296 42.7161C40.6667 42.4729 42.1163 42.2097 43.6763 41.926C43.8779 41.8868 44.0804 41.8481 44.2837 41.8088V45.2083C44.2837 45.4513 44.2326 45.6236 44.1313 45.7249C44.03 45.8058 43.8376 45.8459 43.5542 45.8459C43.2908 45.8662 42.7742 45.8772 42.0044 45.8772C41.2346 45.8569 40.4546 45.8259 39.6646 45.7854C39.8874 46.1906 40.0996 46.6671 40.3022 47.2141C40.5251 47.7408 40.7183 48.2675 40.8804 48.7942C41.0424 49.3411 41.1536 49.8278 41.2144 50.2532C42.4501 50.2532 43.5444 50.1921 44.4966 50.0706C45.4486 49.9693 46.2688 49.7459 46.9575 49.4016C47.6464 49.0572 48.1128 48.5607 48.356 47.9124C48.6192 47.2641 48.7505 46.3828 48.7505 45.2688V40.9651C50.3288 40.6568 51.8895 40.3506 53.4312 40.0422L53.1274 36.0305C51.689 36.262 50.2294 36.4905 48.7505 36.7219V34.0247H54.4692C54.5075 34.3399 54.5442 34.6544 54.5854 34.967C54.8691 37.1143 55.2335 39.1199 55.6792 40.9836C55.7534 41.2806 55.8313 41.572 55.9097 41.8577C55.3733 42.283 54.8212 42.6919 54.2515 43.0813C52.6511 44.1549 50.9999 45.0661 49.2983 45.8157C49.8453 46.3221 50.392 46.9099 50.939 47.5784C51.4859 48.2468 51.9215 48.8547 52.2456 49.4016C54.0441 48.4424 55.763 47.3342 57.4038 46.0793C58.0332 47.3948 58.7544 48.4315 59.5698 49.1887C60.4207 49.9991 61.3828 50.4045 62.4565 50.4045C63.4695 50.4045 64.3104 50.2223 64.979 49.8577C65.6475 49.493 66.1742 48.8142 66.5591 47.8215C66.9642 46.8491 67.2786 45.4413 67.5015 43.5979C66.9342 43.3548 66.3055 42.9994 65.6167 42.5334C64.9485 42.0474 64.3813 41.5514 63.9155 41.0452C63.8345 42.7669 63.7123 44.0126 63.5503 44.7825C63.3883 45.5319 63.1759 45.9073 62.9126 45.9075C62.4669 45.9075 62.0104 45.441 61.5444 44.509C61.3406 44.0735 61.1395 43.5678 60.9399 42.9924C61.3432 42.5869 61.7386 42.1713 62.1226 41.7434C63.5608 40.1431 64.8165 38.3907 65.8901 36.4866L62.0005 34.8147C61.3528 36.007 60.5856 37.1335 59.7026 38.1975C59.5124 37.214 59.3359 36.1674 59.1743 35.0579C59.1246 34.7162 59.0777 34.3717 59.0317 34.0247H66.5894V29.8616H58.5845C58.5462 29.4097 58.5077 28.9535 58.4751 28.4934C58.3333 26.1841 58.2932 23.9051 58.354 21.6565H53.7349C53.7551 23.8445 53.8262 26.0731 53.9478 28.342C53.9796 28.8516 54.0162 29.3581 54.0552 29.8616H48.7505V26.4319C48.9227 26.3998 49.0951 26.3692 49.2671 26.3362C50.8474 26.0323 52.3369 25.6779 53.7349 25.2727L50.7563 21.5042ZM148.52 21.4133V24.2092H142.047V24.425L139.646 21.8079C138.917 22.1118 138.066 22.4061 137.093 22.6897C136.121 22.9733 135.098 23.2366 134.024 23.4797C132.95 23.7025 131.877 23.8948 130.803 24.0569C131.046 24.5026 131.289 25.0602 131.532 25.7288C131.775 26.3769 131.937 26.9338 132.018 27.3997C132.915 27.2895 133.837 27.1598 134.784 27.0129V30.1047H131.046V34.1467H134.33C134.319 34.1768 134.308 34.2073 134.297 34.2375C133.993 35.1086 133.639 35.9898 133.234 36.8811C132.849 37.7725 132.423 38.6235 131.958 39.4338C131.512 40.2442 131.046 40.954 130.56 41.5618C130.783 41.9264 131.015 42.3621 131.258 42.8684C131.522 43.3749 131.765 43.8915 131.988 44.4182C132.231 44.9447 132.413 45.4206 132.535 45.8459C133.082 45.0559 133.609 44.1447 134.116 43.1116C134.348 42.6383 134.569 42.1488 134.784 41.6458V50.2834H139.008V39.2346C139.199 39.5894 139.382 39.9394 139.555 40.2854C139.818 40.8119 140.041 41.2879 140.223 41.7131L142.229 38.9495V50.344H146.15V39.5559H155.145V46.5754C155.145 46.7982 155.034 46.9203 154.811 46.9407H154.294V40.4065H146.91V48.4905H149.857V47.092H153.403C153.593 47.5169 153.77 48.0025 153.929 48.551C154.112 49.1791 154.234 49.7567 154.294 50.2834C155.044 50.2834 155.712 50.2524 156.299 50.1917C156.907 50.1309 157.445 49.9687 157.911 49.7053C158.397 49.4217 158.72 49.037 158.882 48.551C159.044 48.0648 159.125 47.4261 159.125 46.636V36.1829H142.229V37.7043C142.154 37.6193 142.074 37.5262 141.986 37.428C141.662 37.0229 141.287 36.5972 140.862 36.1516C140.457 35.6857 140.071 35.2601 139.707 34.8752C139.417 34.5695 139.183 34.3362 139.008 34.1711V34.1467H142.016V30.1047H139.008V26.2141C139.099 26.1934 139.191 26.1748 139.282 26.1536C140.256 25.91 141.177 25.6377 142.047 25.342V27.6125H159.035V24.2092H152.805V21.4133H148.52ZM103.756 21.4133V26.8528H100.231V30.925H103.756V35.8772C103.406 35.9501 103.061 36.0199 102.723 36.0911C101.589 36.3139 100.585 36.4961 99.7144 36.6379L100.869 41.2571C101.78 41.004 102.742 40.7294 103.756 40.4368V45.6643C103.756 45.8667 103.715 46.0081 103.634 46.0891C103.553 46.1702 103.401 46.2212 103.178 46.2415H102.054C101.528 46.2212 101.001 46.2012 100.474 46.1809C100.737 46.7481 100.981 47.417 101.204 48.1868C101.447 48.9767 101.598 49.6557 101.659 50.2229C102.773 50.2229 103.736 50.1719 104.546 50.0706C105.357 49.9692 106.046 49.756 106.613 49.4319C107.2 49.0875 107.596 48.6219 107.798 48.0344C108.001 47.4672 108.102 46.6771 108.102 45.6643V39.1418C108.989 38.8725 109.87 38.6039 110.746 38.3401L110.32 34.511C109.577 34.6595 108.838 34.8111 108.102 34.9661V30.925H110.791C110.504 31.1321 110.186 31.3352 109.833 31.5325C110.097 31.7351 110.421 32.0394 110.806 32.4446C111.191 32.8498 111.566 33.2652 111.931 33.6907C112.153 33.9497 112.336 34.1835 112.483 34.3899H111.627V38.3401H115.32L112.235 39.2825C113.149 41.073 114.237 42.6663 115.496 44.0637C114.97 44.3449 114.42 44.6054 113.845 44.843C112.326 45.4508 110.655 45.9273 108.832 46.2717C109.115 46.5959 109.399 47.0014 109.682 47.4875C109.986 47.9737 110.259 48.4604 110.502 48.9465C110.766 49.4529 110.968 49.9086 111.11 50.3137C113.176 49.787 115.071 49.1183 116.793 48.3079C117.558 47.9481 118.284 47.5472 118.977 47.1116C121.051 48.5074 123.523 49.5562 126.396 50.2532C126.619 49.848 126.893 49.3915 127.217 48.885C127.541 48.3989 127.886 47.9131 128.25 47.427C128.615 46.9408 128.96 46.5454 129.284 46.2415C126.773 45.7776 124.565 45.06 122.66 44.0911C123.512 43.1785 124.274 42.1654 124.938 41.0452C125.91 39.4041 126.68 37.4991 127.248 35.3313L124.33 34.2375L123.54 34.3899H113.289C114.267 33.7258 115.031 32.9777 115.578 32.1409C116.226 31.1279 116.671 30.0637 116.915 28.9495C117.092 28.1379 117.203 27.3479 117.251 26.5793H120.167V28.7981C120.167 29.9525 120.278 30.864 120.5 31.5325C120.723 32.1808 121.099 32.6473 121.625 32.9309C122.172 33.1941 122.922 33.3254 123.874 33.3254H125.636C126.406 33.3254 127.035 33.1843 127.521 32.9006C128.007 32.617 128.382 32.1204 128.645 31.4114C128.929 30.7023 129.131 29.7293 129.252 28.4934C128.706 28.3516 128.067 28.1392 127.338 27.8557C126.629 27.5721 126.072 27.2678 125.667 26.9436C125.646 27.7335 125.616 28.3314 125.576 28.7366C125.555 29.1418 125.504 29.416 125.423 29.5579C125.363 29.6791 125.271 29.7395 125.15 29.7395H124.725C124.583 29.7395 124.492 29.6892 124.452 29.5881C124.411 29.4666 124.39 29.1823 124.39 28.7366V22.5071H113.146V25.637C113.146 26.2852 113.076 26.9641 112.934 27.6731C112.813 28.3619 112.518 29.0407 112.052 29.7092C111.775 30.0952 111.399 30.4653 110.928 30.8225V26.8528H108.102V21.4133H103.756ZM151.316 42.9895V44.5393H149.857V42.9895H151.316ZM86.8901 41.3489C86.3217 42.138 85.6592 42.8112 84.9019 43.3694C84.8453 43.3543 84.7886 43.3395 84.7319 43.3245C83.1428 42.9026 81.5632 42.511 79.9937 42.1477C80.1699 41.8835 80.3484 41.618 80.5259 41.3489H86.8901ZM121.431 38.3401C121.264 38.6522 121.087 38.9569 120.896 39.2522C120.343 40.0954 119.697 40.8649 118.965 41.5667C117.913 40.6052 117.048 39.5296 116.369 38.3401H121.431ZM144.327 28.4026V35.3918H157.302V28.4026H144.327ZM77.894 30.804V32.9309H75.5239V30.804H77.894ZM84.6714 30.804V32.9309H82.0581V30.804H84.6714ZM91.6909 30.804V32.9309H88.8345V30.804H91.6909ZM153.413 31.2893V32.5051H148.003V31.2893H153.413ZM58.9614 24.5129C59.4882 24.9992 60.0257 25.5358 60.5728 26.1233C61.1197 26.7107 61.6154 27.2986 62.061 27.886C62.5066 28.4733 62.8411 29.0102 63.064 29.4963L66.6196 27.0354C66.3361 26.5493 65.9514 26.0225 65.4653 25.4553C64.9791 24.8881 64.4525 24.3304 63.8853 23.7834C63.3382 23.2162 62.8007 22.7096 62.2739 22.2639L58.9614 24.5129ZM84.6714 26.1536V27.3694H82.0581V26.1536H84.6714Z" fill="white"/>
</svg>
