<svg width="198" height="72" viewBox="0 0 198 72" fill="none" xmlns="http://www.w3.org/2000/svg">
<path d="M180.532 0C189.921 8.41597e-06 197.532 7.61126 197.532 17V54.416C197.532 63.8048 189.921 71.416 180.532 71.416H17C7.61123 71.416 0.00011854 63.8048 0 54.416V17C0.000121719 7.61126 7.61123 0 17 0H180.532ZM112.214 21.2119C111.14 21.5563 109.934 21.8907 108.597 22.2148C107.26 22.5187 105.862 22.7921 104.403 23.0352C102.945 23.2783 101.496 23.4915 100.058 23.6738C100.301 24.16 100.544 24.7678 100.787 25.4971C101.05 26.2262 101.223 26.8542 101.304 27.3809C102.736 27.2453 104.215 27.0718 105.74 26.8623V29.5693H100.392V33.7324H105.74V37.1221C105.164 37.2094 104.597 37.2963 104.039 37.3789C102.418 37.6017 100.99 37.795 99.7539 37.957L100.787 42.4238C102.124 42.1807 103.573 41.9174 105.133 41.6338C105.334 41.5945 105.537 41.5559 105.74 41.5166V44.916C105.74 45.1589 105.69 45.3313 105.589 45.4326C105.488 45.5137 105.294 45.5537 105.011 45.5537C104.747 45.574 104.231 45.585 103.461 45.585C102.691 45.5647 101.911 45.5337 101.121 45.4932C101.344 45.8984 101.557 46.3749 101.76 46.9219C101.983 47.4485 102.175 47.9753 102.337 48.502C102.499 49.0489 102.61 49.5355 102.671 49.9609C103.907 49.9609 105.001 49.8999 105.953 49.7783C106.905 49.677 107.726 49.4538 108.415 49.1094C109.104 48.765 109.569 48.2683 109.812 47.6201C110.076 46.9718 110.208 46.0906 110.208 44.9766V40.6729C111.786 40.3646 113.346 40.0583 114.888 39.75L114.584 35.7383C113.146 35.9697 111.687 36.1983 110.208 36.4297V33.7324H115.927C115.965 34.0476 116.002 34.3622 116.043 34.6748C116.327 36.8221 116.691 38.8277 117.137 40.6914C117.211 40.988 117.288 41.2791 117.366 41.5645C116.83 41.9899 116.278 42.3996 115.708 42.7891C114.108 43.8627 112.456 44.7739 110.755 45.5234C111.302 46.0299 111.849 46.6176 112.396 47.2861C112.942 47.9546 113.378 48.5625 113.702 49.1094C115.501 48.1502 117.22 47.042 118.86 45.7871C119.49 47.1025 120.211 48.1392 121.026 48.8965C121.877 49.7068 122.839 50.1122 123.913 50.1123C124.926 50.1123 125.767 49.9301 126.436 49.5654C127.104 49.2008 127.631 48.522 128.016 47.5293C128.421 46.5569 128.735 45.1491 128.958 43.3057C128.391 43.0625 127.763 42.7072 127.074 42.2412C126.406 41.755 125.838 41.2594 125.372 40.7529C125.291 42.4746 125.17 43.7204 125.008 44.4902C124.846 45.2398 124.633 45.6152 124.369 45.6152C123.923 45.6152 123.468 45.1487 123.002 44.2168C122.798 43.7813 122.597 43.2756 122.397 42.7002C122.801 42.2947 123.195 41.8789 123.579 41.4512C125.017 39.8507 126.274 38.0986 127.348 36.1943L123.458 34.5225C122.81 35.715 122.042 36.8421 121.159 37.9062C120.969 36.9225 120.792 35.8755 120.631 34.7656C120.581 34.424 120.534 34.0795 120.488 33.7324H128.046V29.5693H120.041C120.003 29.1175 119.965 28.6612 119.933 28.2012C119.791 25.8918 119.75 23.6129 119.811 21.3643H115.191C115.212 23.5522 115.283 25.7808 115.404 28.0498C115.436 28.5594 115.474 29.0658 115.513 29.5693H110.208V26.1396C110.38 26.1076 110.553 26.077 110.725 26.0439C112.305 25.7401 113.794 25.3856 115.191 24.9805L112.214 21.2119ZM50.0664 21.1211V24.7676H39.2783V29.1436H50.0664V32.0303H40.8281V36.3457H46.9893L43.7764 37.4404C45.051 39.7233 46.5492 41.6844 48.2705 43.3242C47.3014 43.7077 46.2799 44.0481 45.2041 44.3389C42.9756 44.9466 40.5648 45.4022 37.9717 45.7061C38.2553 46.0302 38.5587 46.4558 38.8828 46.9824C39.207 47.5091 39.5013 48.0358 39.7646 48.5625C40.0483 49.1095 40.2505 49.586 40.3721 49.9912C43.0666 49.5658 45.6094 48.9371 48 48.1064C49.508 47.5996 50.9367 47.0017 52.2861 46.3125C53.2113 46.8441 54.193 47.3215 55.2324 47.7422C57.7851 48.7957 60.7743 49.5655 64.1982 50.0518C64.4008 49.6263 64.6642 49.1397 64.9883 48.5928C65.3124 48.0459 65.6469 47.5191 65.9912 47.0127C66.3558 46.4861 66.7003 46.0504 67.0244 45.7061C63.0616 45.3064 59.6532 44.5292 56.7988 43.377C57.924 42.4389 58.9526 41.3927 59.8828 40.2363C61.4023 38.3725 62.6076 36.174 63.499 33.6416L60.3691 31.8789L59.6094 32.0303H54.6855V29.1436H65.5654V24.7676H54.6855V21.1211H50.0664ZM86.3516 21.2422V24.3115H80.2432V28.293H86.3516V30.2686H79.0889V34.2793H90.2422V36.1338H79.332V40.1143H83.6689L80.6387 41.7861C81.0641 42.3331 81.4796 42.9309 81.8848 43.5791C82.2898 44.2272 82.6544 44.8653 82.9785 45.4932C83.3229 46.101 83.5762 46.6485 83.7383 47.1348L87.5371 44.9766C87.3346 44.4702 87.0511 43.9233 86.6865 43.3359C86.3219 42.7283 85.9163 42.1204 85.4707 41.5127C85.1035 41.012 84.7421 40.5462 84.3887 40.1143H90.2422V45.4629C90.2422 45.6655 90.2012 45.7976 90.1201 45.8584C90.039 45.9191 89.8767 45.9492 89.6338 45.9492C89.4311 45.9695 88.9855 45.9795 88.2969 45.9795C87.6285 45.9592 87.0005 45.9292 86.4131 45.8887C86.6764 46.4559 86.9188 47.1349 87.1416 47.9248C87.3847 48.7149 87.5469 49.4137 87.6279 50.0215C88.7017 50.0215 89.6647 49.9805 90.5156 49.8994C91.3865 49.8386 92.1358 49.6463 92.7637 49.3223C93.412 48.9981 93.8484 48.5426 94.0713 47.9551C94.3144 47.3878 94.4355 46.5869 94.4355 45.5537V40.1143H97.5654V36.1338H94.4355V34.2793H97.8086V30.2686H90.5459V28.293H96.5322V24.3115H90.5459V21.2422H86.3516ZM135.826 21.1211C135.421 22.5593 134.914 23.9773 134.307 25.375C133.719 26.7729 133.06 28.0803 132.331 29.2959C131.622 30.5114 130.872 31.5847 130.082 32.5166C130.305 32.9015 130.558 33.4083 130.842 34.0361C131.125 34.6642 131.39 35.2928 131.633 35.9209C131.876 36.5284 132.048 37.0143 132.149 37.3789C132.584 36.869 133.008 36.3216 133.426 35.7393V49.9609H137.619V28.251C137.69 28.0933 137.762 27.9354 137.832 27.7764C138.386 26.5169 138.881 25.2711 139.321 24.04V49.8994H143.394V34.6445H148.194V22.6709H139.789C139.825 22.5593 139.863 22.4483 139.898 22.3369L135.826 21.1211ZM149.289 22.6709V34.6445H154.455V45.0068C154.455 45.2905 154.394 45.4937 154.272 45.6152C154.151 45.7164 153.948 45.7666 153.665 45.7666C153.462 45.7666 153.118 45.7766 152.632 45.7969C152.146 45.7969 151.598 45.7869 150.99 45.7666C150.383 45.7463 149.795 45.7163 149.228 45.6758C149.43 46.0405 149.623 46.4759 149.806 46.9824C150.008 47.4889 150.18 47.9955 150.322 48.502C150.484 49.0285 150.585 49.4943 150.626 49.8994C152.064 49.8994 153.29 49.8493 154.303 49.748C155.316 49.667 156.167 49.4538 156.855 49.1094C157.544 48.765 158.011 48.2793 158.254 47.6514C158.517 47.0436 158.648 46.1817 158.648 45.0674V22.6709H149.289ZM72.3418 21.1514V26.6826H69.1816V30.7236H72.3418V35.3486C70.9448 35.6669 69.7194 35.9297 68.665 36.1338L69.5771 40.3574C70.4513 40.1294 71.3726 39.8838 72.3418 39.624V45.1895C72.3418 45.392 72.3017 45.5342 72.2207 45.6152C72.1599 45.6759 72.0384 45.706 71.8564 45.7061H70.9141C70.4683 45.6858 70.0019 45.6658 69.5156 45.6455C69.779 46.233 70.0123 46.9218 70.2148 47.7119C70.4377 48.5223 70.5698 49.2011 70.6104 49.748C71.6029 49.7683 72.4641 49.7172 73.1934 49.5957C73.9225 49.4742 74.5405 49.2518 75.0469 48.9277C75.5736 48.5833 75.928 48.1168 76.1104 47.5293C76.2927 46.9418 76.3838 46.1719 76.3838 45.2197V38.5273C77.2608 38.2864 78.1319 38.0456 78.9971 37.8047L78.4502 33.8545C77.7616 34.0286 77.0724 34.1991 76.3838 34.3701V30.7236H78.6328V26.6826H76.3838V21.1514H72.3418ZM57.1504 36.3457C56.7603 36.9941 56.3237 37.6017 55.8408 38.1689C54.9001 39.2766 53.8052 40.2533 52.5576 41.0996C50.7069 39.787 49.2417 38.2031 48.1611 36.3457H57.1504ZM144.912 30.1768V31.3623H143.394V30.1768H144.912ZM154.455 30.1768V31.3623H152.723V30.1768H154.455ZM120.419 24.2207C120.946 24.7069 121.482 25.2436 122.029 25.8311C122.576 26.4186 123.073 27.0062 123.519 27.5938C123.964 28.1812 124.299 28.7179 124.521 29.2041L128.077 26.7432C127.794 26.257 127.408 25.7303 126.922 25.1631C126.436 24.5958 125.909 24.0382 125.342 23.4912C124.795 22.924 124.258 22.4174 123.731 21.9717L120.419 24.2207ZM144.912 25.9531V27.1074H143.394V25.9531H144.912ZM154.455 25.9531V27.1074H152.723V25.9531H154.455Z" fill="white"/>
</svg>
