<svg width="62" height="61" viewBox="0 0 62 61" fill="none" xmlns="http://www.w3.org/2000/svg">
<circle cx="31.0543" cy="30.4527" r="30.4527" fill="#2972C4"/>
<path d="M15.1846 28.3804C13.8039 28.3804 12.6846 29.4997 12.6846 30.8804C12.6846 32.2611 13.8039 33.3804 15.1846 33.3804V30.8804V28.3804ZM48.6918 32.6481C49.6681 31.6718 49.6681 30.0889 48.6918 29.1126L32.7819 13.2027C31.8056 12.2264 30.2227 12.2264 29.2464 13.2027C28.2701 14.179 28.2701 15.7619 29.2464 16.7382L43.3885 30.8804L29.2464 45.0225C28.2701 45.9988 28.2701 47.5817 29.2464 48.558C30.2227 49.5344 31.8056 49.5344 32.7819 48.558L48.6918 32.6481ZM15.1846 30.8804V33.3804H46.924V30.8804V28.3804H15.1846V30.8804Z" fill="white"/>
</svg>
