<svg width="62" height="61" viewBox="0 0 62 61" fill="none" xmlns="http://www.w3.org/2000/svg">
<circle cx="31.1852" cy="30.4527" r="30.4527" fill="#DC5456"/>
<path d="M15.3154 28.3804C13.9347 28.3804 12.8154 29.4997 12.8154 30.8804C12.8154 32.2611 13.9347 33.3804 15.3154 33.3804V30.8804V28.3804ZM48.8227 32.6481C49.799 31.6718 49.799 30.0889 48.8227 29.1126L32.9128 13.2027C31.9365 12.2264 30.3535 12.2264 29.3772 13.2027C28.4009 14.179 28.4009 15.7619 29.3772 16.7382L43.5194 30.8804L29.3772 45.0225C28.4009 45.9988 28.4009 47.5817 29.3772 48.558C30.3535 49.5344 31.9365 49.5344 32.9128 48.558L48.8227 32.6481ZM15.3154 30.8804V33.3804H47.0549V30.8804V28.3804H15.3154V30.8804Z" fill="white"/>
</svg>
