<svg width="62" height="61" viewBox="0 0 62 61" fill="none" xmlns="http://www.w3.org/2000/svg">
<circle cx="30.6197" cy="30.4527" r="30.4527" fill="#FF8400"/>
<path d="M14.75 28.3804C13.3693 28.3804 12.25 29.4997 12.25 30.8804C12.25 32.2611 13.3693 33.3804 14.75 33.3804V30.8804V28.3804ZM48.2572 32.6481C49.2336 31.6718 49.2336 30.0889 48.2572 29.1126L32.3473 13.2027C31.371 12.2264 29.7881 12.2264 28.8118 13.2027C27.8355 14.179 27.8355 15.7619 28.8118 16.7382L42.9539 30.8804L28.8118 45.0225C27.8355 45.9988 27.8355 47.5817 28.8118 48.558C29.7881 49.5344 31.371 49.5344 32.3473 48.558L48.2572 32.6481ZM14.75 30.8804V33.3804H46.4895V30.8804V28.3804H14.75V30.8804Z" fill="white"/>
</svg>
