<svg width="75" height="75" viewBox="0 0 75 75" fill="none" xmlns="http://www.w3.org/2000/svg">
<circle cx="37.3835" cy="37.8489" r="37.0349" fill="#345B92"/>
<path d="M18.5811 35.2791C17.4765 35.2791 16.5811 36.1745 16.5811 37.2791C16.5811 38.3836 17.4765 39.2791 18.5811 39.2791V37.2791V35.2791ZM57.5999 38.6933C58.381 37.9122 58.381 36.6459 57.5999 35.8648L44.872 23.1369C44.0909 22.3559 42.8246 22.3559 42.0436 23.1369C41.2625 23.918 41.2625 25.1843 42.0436 25.9653L53.3573 37.2791L42.0436 48.5928C41.2625 49.3738 41.2625 50.6401 42.0436 51.4212C42.8246 52.2022 44.0909 52.2022 44.872 51.4212L57.5999 38.6933ZM18.5811 37.2791V39.2791H56.1857V37.2791V35.2791H18.5811V37.2791Z" fill="white"/>
</svg>
