<svg id="visual" viewBox="0 0 900 200" width="900" height="200" xmlns="http://www.w3.org/2000/svg"
    xmlns:xlink="http://www.w3.org/1999/xlink" version="1.1">
    <path
        d="M0 68L10 75.7C20 83.3 40 98.7 60 100.7C80 102.7 100 91.3 120 87C140 82.7 160 85.3 180 90.3C200 95.3 220 102.7 240 100C260 97.3 280 84.7 300 75C320 65.3 340 58.7 360 62.8C380 67 400 82 420 91.7C440 101.3 460 105.7 480 103.3C500 101 520 92 540 89.2C560 86.3 580 89.7 600 86.3C620 83 640 73 660 71.7C680 70.3 700 77.7 720 82.3C740 87 760 89 780 83.5C800 78 820 65 840 64.2C860 63.3 880 74.7 890 80.3L900 86L900 201L890 201C880 201 860 201 840 201C820 201 800 201 780 201C760 201 740 201 720 201C700 201 680 201 660 201C640 201 620 201 600 201C580 201 560 201 540 201C520 201 500 201 480 201C460 201 440 201 420 201C400 201 380 201 360 201C340 201 320 201 300 201C280 201 260 201 240 201C220 201 200 201 180 201C160 201 140 201 120 201C100 201 80 201 60 201C40 201 20 201 10 201L0 201Z"
        fill="#161633"></path>
    <path
        d="M0 120L10 118.7C20 117.3 40 114.7 60 113.7C80 112.7 100 113.3 120 116.7C140 120 160 126 180 122.2C200 118.3 220 104.7 240 105C260 105.3 280 119.7 300 124.2C320 128.7 340 123.3 360 114.5C380 105.7 400 93.3 420 90.7C440 88 460 95 480 99.7C500 104.3 520 106.7 540 103.2C560 99.7 580 90.3 600 92.7C620 95 640 109 660 114.8C680 120.7 700 118.3 720 114.7C740 111 760 106 780 107.2C800 108.3 820 115.7 840 118.7C860 121.7 880 120.3 890 119.7L900 119L900 201L890 201C880 201 860 201 840 201C820 201 800 201 780 201C760 201 740 201 720 201C700 201 680 201 660 201C640 201 620 201 600 201C580 201 560 201 540 201C520 201 500 201 480 201C460 201 440 201 420 201C400 201 380 201 360 201C340 201 320 201 300 201C280 201 260 201 240 201C220 201 200 201 180 201C160 201 140 201 120 201C100 201 80 201 60 201C40 201 20 201 10 201L0 201Z"
        fill="#5d5a71"></path>
</svg>