<svg id="visual" viewBox="0 0 900 200" width="900" height="200" xmlns="http://www.w3.org/2000/svg" xmlns:xlink="http://www.w3.org/1999/xlink" version="1.1"><rect x="0" y="0" width="900" height="200" fill="#010121"></rect><path d="M0 68L10 75.7C20 83.3 40 98.7 60 100.7C80 102.7 100 91.3 120 87C140 82.7 160 85.3 180 90.3C200 95.3 220 102.7 240 100C260 97.3 280 84.7 300 75C320 65.3 340 58.7 360 62.8C380 67 400 82 420 91.7C440 101.3 460 105.7 480 103.3C500 101 520 92 540 89.2C560 86.3 580 89.7 600 86.3C620 83 640 73 660 71.7C680 70.3 700 77.7 720 82.3C740 87 760 89 780 83.5C800 78 820 65 840 64.2C860 63.3 880 74.7 890 80.3L900 86L900 201L890 201C880 201 860 201 840 201C820 201 800 201 780 201C760 201 740 201 720 201C700 201 680 201 660 201C640 201 620 201 600 201C580 201 560 201 540 201C520 201 500 201 480 201C460 201 440 201 420 201C400 201 380 201 360 201C340 201 320 201 300 201C280 201 260 201 240 201C220 201 200 201 180 201C160 201 140 201 120 201C100 201 80 201 60 201C40 201 20 201 10 201L0 201Z" fill="#161633"></path><path d="M0 120L10 118.7C20 117.3 40 114.7 60 113.7C80 112.7 100 113.3 120 116.7C140 120 160 126 180 122.2C200 118.3 220 104.7 240 105C260 105.3 280 119.7 300 124.2C320 128.7 340 123.3 360 114.5C380 105.7 400 93.3 420 90.7C440 88 460 95 480 99.7C500 104.3 520 106.7 540 103.2C560 99.7 580 90.3 600 92.7C620 95 640 109 660 114.8C680 120.7 700 118.3 720 114.7C740 111 760 106 780 107.2C800 108.3 820 115.7 840 118.7C860 121.7 880 120.3 890 119.7L900 119L900 201L890 201C880 201 860 201 840 201C820 201 800 201 780 201C760 201 740 201 720 201C700 201 680 201 660 201C640 201 620 201 600 201C580 201 560 201 540 201C520 201 500 201 480 201C460 201 440 201 420 201C400 201 380 201 360 201C340 201 320 201 300 201C280 201 260 201 240 201C220 201 200 201 180 201C160 201 140 201 120 201C100 201 80 201 60 201C40 201 20 201 10 201L0 201Z" fill="#5d5a71"></path><path d="M0 129L10 126.5C20 124 40 119 60 116.3C80 113.7 100 113.3 120 117.2C140 121 160 129 180 132.3C200 135.7 220 134.3 240 136.5C260 138.7 280 144.3 300 141.5C320 138.7 340 127.3 360 128C380 128.7 400 141.3 420 142C440 142.7 460 131.3 480 127.3C500 123.3 520 126.7 540 125.3C560 124 580 118 600 118.7C620 119.3 640 126.7 660 131.2C680 135.7 700 137.3 720 137C740 136.7 760 134.3 780 131.8C800 129.3 820 126.7 840 125.2C860 123.7 880 123.3 890 123.2L900 123L900 201L890 201C880 201 860 201 840 201C820 201 800 201 780 201C760 201 740 201 720 201C700 201 680 201 660 201C640 201 620 201 600 201C580 201 560 201 540 201C520 201 500 201 480 201C460 201 440 201 420 201C400 201 380 201 360 201C340 201 320 201 300 201C280 201 260 201 240 201C220 201 200 201 180 201C160 201 140 201 120 201C100 201 80 201 60 201C40 201 20 201 10 201L0 201Z" fill="#aba9b6"></path><path d="M0 150L10 150.8C20 151.7 40 153.3 60 152.7C80 152 100 149 120 149C140 149 160 152 180 154.2C200 156.3 220 157.7 240 158.8C260 160 280 161 300 160.5C320 160 340 158 360 160C380 162 400 168 420 167C440 166 460 158 480 154.8C500 151.7 520 153.3 540 156.8C560 160.3 580 165.7 600 168.8C620 172 640 173 660 168.7C680 164.3 700 154.7 720 153.8C740 153 760 161 780 160.7C800 160.3 820 151.7 840 152C860 152.3 880 161.7 890 166.3L900 171L900 201L890 201C880 201 860 201 840 201C820 201 800 201 780 201C760 201 740 201 720 201C700 201 680 201 660 201C640 201 620 201 600 201C580 201 560 201 540 201C520 201 500 201 480 201C460 201 440 201 420 201C400 201 380 201 360 201C340 201 320 201 300 201C280 201 260 201 240 201C220 201 200 201 180 201C160 201 140 201 120 201C100 201 80 201 60 201C40 201 20 201 10 201L0 201Z" fill="#ffffff"></path></svg>