<svg id="visual" viewBox="0 0 900 200" width="900" height="200" xmlns="http://www.w3.org/2000/svg"
    xmlns:xlink="http://www.w3.org/1999/xlink" version="1.1">
    <path
        d="M0 129L10 126.5C20 124 40 119 60 116.3C80 113.7 100 113.3 120 117.2C140 121 160 129 180 132.3C200 135.7 220 134.3 240 136.5C260 138.7 280 144.3 300 141.5C320 138.7 340 127.3 360 128C380 128.7 400 141.3 420 142C440 142.7 460 131.3 480 127.3C500 123.3 520 126.7 540 125.3C560 124 580 118 600 118.7C620 119.3 640 126.7 660 131.2C680 135.7 700 137.3 720 137C740 136.7 760 134.3 780 131.8C800 129.3 820 126.7 840 125.2C860 123.7 880 123.3 890 123.2L900 123L900 201L890 201C880 201 860 201 840 201C820 201 800 201 780 201C760 201 740 201 720 201C700 201 680 201 660 201C640 201 620 201 600 201C580 201 560 201 540 201C520 201 500 201 480 201C460 201 440 201 420 201C400 201 380 201 360 201C340 201 320 201 300 201C280 201 260 201 240 201C220 201 200 201 180 201C160 201 140 201 120 201C100 201 80 201 60 201C40 201 20 201 10 201L0 201Z"
        fill="#aba9b6"></path>
    <path
        d="M0 150L10 150.8C20 151.7 40 153.3 60 152.7C80 152 100 149 120 149C140 149 160 152 180 154.2C200 156.3 220 157.7 240 158.8C260 160 280 161 300 160.5C320 160 340 158 360 160C380 162 400 168 420 167C440 166 460 158 480 154.8C500 151.7 520 153.3 540 156.8C560 160.3 580 165.7 600 168.8C620 172 640 173 660 168.7C680 164.3 700 154.7 720 153.8C740 153 760 161 780 160.7C800 160.3 820 151.7 840 152C860 152.3 880 161.7 890 166.3L900 171L900 201L890 201C880 201 860 201 840 201C820 201 800 201 780 201C760 201 740 201 720 201C700 201 680 201 660 201C640 201 620 201 600 201C580 201 560 201 540 201C520 201 500 201 480 201C460 201 440 201 420 201C400 201 380 201 360 201C340 201 320 201 300 201C280 201 260 201 240 201C220 201 200 201 180 201C160 201 140 201 120 201C100 201 80 201 60 201C40 201 20 201 10 201L0 201Z"
        fill="#f4f9ff"></path>
</svg>