<svg width="30" height="30" viewBox="0 0 30 30" fill="none" xmlns="http://www.w3.org/2000/svg">
<path d="M21.25 27.5V23.75H17.5V21.25H21.25V17.5H23.75V21.25H27.5V23.75H23.75V27.5H21.25ZM6.25 25C5.5625 25 4.97396 24.7552 4.48438 24.2656C3.99479 23.776 3.75 23.1875 3.75 22.5V7.5C3.75 6.8125 3.99479 6.22396 4.48438 5.73438C4.97396 5.24479 5.5625 5 6.25 5H7.5V2.5H10V5H17.5V2.5H20V5H21.25C21.9375 5 22.526 5.24479 23.0156 5.73438C23.5052 6.22396 23.75 6.8125 23.75 7.5V15.125C23.3333 15.0625 22.9167 15.0312 22.5 15.0312C22.0833 15.0312 21.6667 15.0625 21.25 15.125V12.5H6.25V22.5H15C15 22.9167 15.0312 23.3333 15.0938 23.75C15.1562 24.1667 15.2708 24.5833 15.4375 25H6.25ZM6.25 10H21.25V7.5H6.25V10Z" fill="white"/>
</svg>
