<svg width="56" height="56" viewBox="0 0 56 56" fill="none" xmlns="http://www.w3.org/2000/svg">
<path d="M27.5527 2C41.6652 2 53.1063 13.4403 53.1064 27.5527C53.1064 41.6653 41.6653 53.1064 27.5527 53.1064C13.4403 53.1063 2 41.6652 2 27.5527C2.00013 13.4404 13.4404 2.00013 27.5527 2Z" stroke="#272727" stroke-width="4"/>
<path d="M22.6369 27.0814H41.1649V29.3214H22.6369V27.0814ZM21.3569 31.8814H42.2529V34.1534H21.3569V31.8814ZM26.8609 25.0654H29.6449V33.1614H26.8609V25.0654ZM33.9969 25.0654H36.8129V33.1614H33.9969V25.0654ZM33.2929 35.4974L35.3089 34.1534C36.4396 34.6654 37.5916 35.2628 38.7649 35.9454C39.9596 36.6281 40.9303 37.2361 41.6769 37.7694L38.9889 39.0814C38.3489 38.5268 37.5063 37.9188 36.4609 37.2574C35.4369 36.5961 34.3809 36.0094 33.2929 35.4974ZM27.9169 34.2174L30.6049 35.1454C29.7729 35.9134 28.7703 36.6601 27.5969 37.3854C26.4236 38.1108 25.2823 38.7188 24.1729 39.2094C24.0023 39.0174 23.7783 38.8041 23.5009 38.5694C23.2449 38.3348 22.9676 38.1108 22.6689 37.8974C22.3916 37.6841 22.1356 37.5134 21.9009 37.3854C23.0103 36.9801 24.1089 36.5001 25.1969 35.9454C26.3063 35.3908 27.2129 34.8148 27.9169 34.2174ZM23.5009 14.7614H31.0849V20.4894H23.5009V18.5374H28.5249V16.7134H23.5009V14.7614ZM33.6769 14.7934H41.4529V20.5214H33.6769V18.5694H38.8289V16.7454H33.6769V14.7934ZM32.5569 14.7934H34.9889V21.1934C34.9889 21.6414 35.0316 21.9614 35.1169 22.1534C35.2236 22.3241 35.4583 22.4094 35.8209 22.4094C35.9703 22.4094 36.2263 22.4094 36.5889 22.4094C36.9516 22.4094 37.3356 22.4094 37.7409 22.4094C38.1676 22.4094 38.5623 22.4094 38.9249 22.4094C39.2876 22.4094 39.5436 22.4094 39.6929 22.4094C40.0129 22.4094 40.3863 22.3988 40.8129 22.3774C41.2396 22.3348 41.5809 22.2921 41.8369 22.2494C41.8796 22.5694 41.9116 22.9321 41.9329 23.3374C41.9756 23.7214 42.0183 24.0521 42.0609 24.3294C41.8263 24.3934 41.4956 24.4468 41.0689 24.4894C40.6423 24.5108 40.2156 24.5214 39.7889 24.5214C39.6183 24.5214 39.3303 24.5214 38.9249 24.5214C38.5409 24.5214 38.1143 24.5214 37.6449 24.5214C37.1969 24.5214 36.7809 24.5214 36.3969 24.5214C36.0343 24.5214 35.7889 24.5214 35.6609 24.5214C34.8289 24.5214 34.1889 24.4148 33.7409 24.2014C33.2929 23.9668 32.9836 23.6041 32.8129 23.1134C32.6423 22.6228 32.5569 21.9721 32.5569 21.1614V14.7934ZM22.4769 25.3854L22.3809 23.5294L23.5329 22.7294L31.2769 21.5774C31.1916 21.8974 31.1169 22.2708 31.0529 22.6974C30.9889 23.1028 30.9463 23.4334 30.9249 23.6894C29.1969 23.9881 27.8103 24.2334 26.7649 24.4254C25.7196 24.5961 24.9089 24.7454 24.3329 24.8734C23.7569 24.9801 23.3303 25.0761 23.0529 25.1614C22.7969 25.2468 22.6049 25.3214 22.4769 25.3854ZM22.4769 25.3854C22.4343 25.1721 22.3489 24.9268 22.2209 24.6494C22.0929 24.3508 21.9649 24.0628 21.8369 23.7854C21.7089 23.4868 21.5703 23.2521 21.4209 23.0814C21.6556 22.9534 21.8689 22.7508 22.0609 22.4734C22.2743 22.1961 22.3809 21.7481 22.3809 21.1294V14.7614H24.7809V23.2734C24.7809 23.2734 24.6636 23.3481 24.4289 23.4974C24.1943 23.6468 23.9169 23.8281 23.5969 24.0414C23.2983 24.2548 23.0316 24.4788 22.7969 24.7134C22.5836 24.9481 22.4769 25.1721 22.4769 25.3854ZM13.7729 15.0814L16.0129 13.7054C16.5036 14.2174 17.0156 14.7721 17.5489 15.3694C18.0823 15.9454 18.5836 16.5108 19.0529 17.0654C19.5223 17.6201 19.9063 18.1108 20.2049 18.5374L17.8689 20.2334C17.5916 19.7641 17.2183 19.2308 16.7489 18.6334C16.3009 18.0361 15.8103 17.4281 15.2769 16.8094C14.7649 16.1694 14.2636 15.5934 13.7729 15.0814ZM13.2609 21.0334H19.1489V23.4974H13.2609V21.0334ZM19.1809 35.3374C19.8209 36.7454 20.6849 37.7908 21.7729 38.4734C22.8823 39.1561 24.2263 39.6041 25.8049 39.8174C27.3836 40.0308 29.1969 40.1374 31.2449 40.1374C32.3756 40.1374 33.6343 40.1161 35.0209 40.0734C36.4289 40.0308 37.8369 39.9774 39.2449 39.9134C40.6529 39.8494 41.9329 39.7641 43.0849 39.6574C42.9356 39.8494 42.7969 40.1268 42.6689 40.4894C42.5409 40.8308 42.4236 41.1828 42.3169 41.5454C42.2103 41.9081 42.1356 42.2281 42.0929 42.5054C41.0263 42.5694 39.8849 42.6228 38.6689 42.6654C37.4529 42.7081 36.2049 42.7401 34.9249 42.7614C33.6663 42.7828 32.4289 42.7934 31.2129 42.7934C29.3143 42.7934 27.6289 42.7081 26.1569 42.5374C24.6849 42.3668 23.3836 42.0574 22.2529 41.6094C21.1223 41.1614 20.1409 40.5108 19.3089 39.6574C18.4769 38.7828 17.7623 37.6308 17.1649 36.2014L19.1809 35.3374ZM18.5729 28.8734H19.3089L19.7889 28.8094L21.2609 29.3534C20.7916 32.7668 19.9809 35.6361 18.8289 37.9614C17.6769 40.2868 16.2689 42.0788 14.6049 43.3374C14.4769 43.1241 14.2956 42.8788 14.0609 42.6014C13.8263 42.3454 13.5809 42.0894 13.3249 41.8334C13.0689 41.5988 12.8343 41.4174 12.6209 41.2894C14.1783 40.2014 15.4689 38.6548 16.4929 36.6494C17.5169 34.6228 18.2103 32.2014 18.5729 29.3854V28.8734ZM13.8689 31.7534V29.5134L15.1169 28.8734H19.4049V31.2734H15.7249C15.3623 31.2734 14.9889 31.3268 14.6049 31.4334C14.2423 31.5188 13.9969 31.6254 13.8689 31.7534ZM13.8689 31.7534C13.8263 31.5188 13.7409 31.2414 13.6129 30.9214C13.4849 30.6014 13.3463 30.2814 13.1969 29.9614C13.0689 29.6414 12.9516 29.3961 12.8449 29.2254C13.1009 29.1401 13.3463 29.0334 13.5809 28.9054C13.8156 28.7561 14.0609 28.5321 14.3169 28.2334C14.5303 27.9988 14.8183 27.5934 15.1809 27.0174C15.5436 26.4414 15.9383 25.7908 16.3649 25.0654C16.8129 24.3188 17.2183 23.6148 17.5809 22.9534C17.9649 22.2708 18.2743 21.7161 18.5089 21.2894V21.1614L19.3089 20.8414L21.2289 21.6094C20.9089 22.1428 20.5249 22.7828 20.0769 23.5294C19.6503 24.2761 19.1916 25.0548 18.7009 25.8654C18.2316 26.6548 17.7623 27.4121 17.2929 28.1374C16.8236 28.8628 16.3863 29.4814 15.9809 29.9934C15.9809 29.9934 15.8743 30.0468 15.6609 30.1534C15.4476 30.2601 15.2023 30.4094 14.9249 30.6014C14.6476 30.7934 14.4023 30.9961 14.1889 31.2094C13.9756 31.4014 13.8689 31.5828 13.8689 31.7534Z" fill="#272727"/>
</svg>
