<svg width="56" height="56" viewBox="0 0 56 56" fill="none" xmlns="http://www.w3.org/2000/svg">
<circle cx="27.553" cy="27.553" r="25.553" stroke="#8D5657" stroke-width="4"/>
<path d="M21.3889 21.0974H24.5889V38.0894C24.5889 38.6228 24.6316 39.0174 24.7169 39.2734C24.8236 39.5294 25.0263 39.7108 25.3249 39.8174C25.6236 39.9028 26.0609 39.9454 26.6369 39.9454C26.8503 39.9454 27.2023 39.9454 27.6929 39.9454C28.2049 39.9454 28.7596 39.9454 29.3569 39.9454C29.9756 39.9454 30.5409 39.9454 31.0529 39.9454C31.5863 39.9454 31.9809 39.9454 32.2369 39.9454C32.8343 39.9454 33.2823 39.7961 33.5809 39.4974C33.8796 39.1988 34.0929 38.6228 34.2209 37.7694C34.3703 36.9161 34.4769 35.6894 34.5409 34.0894C34.7969 34.2601 35.0956 34.4414 35.4369 34.6334C35.7996 34.8041 36.1623 34.9534 36.5249 35.0814C36.9089 35.2094 37.2396 35.3161 37.5169 35.4014C37.3676 37.3214 37.1329 38.8361 36.8129 39.9454C36.5143 41.0334 36.0236 41.8014 35.3409 42.2494C34.6583 42.7188 33.6983 42.9534 32.4609 42.9534C32.2903 42.9534 31.9916 42.9534 31.5649 42.9534C31.1596 42.9534 30.6903 42.9534 30.1569 42.9534C29.6449 42.9534 29.1223 42.9534 28.5889 42.9534C28.0556 42.9534 27.5863 42.9534 27.1809 42.9534C26.7756 42.9534 26.4876 42.9534 26.3169 42.9534C25.0369 42.9534 24.0343 42.8148 23.3089 42.5374C22.6049 42.2601 22.1036 41.7588 21.8049 41.0334C21.5276 40.3294 21.3889 39.3374 21.3889 38.0574V21.0974ZM21.5809 15.7854L23.5649 13.6094C24.4609 14.1854 25.3996 14.8254 26.3809 15.5294C27.3623 16.2334 28.3009 16.9161 29.1969 17.5774C30.1143 18.2388 30.8716 18.8254 31.4689 19.3374L29.4529 21.8014C28.8556 21.2468 28.1089 20.6174 27.2129 19.9134C26.3169 19.2094 25.3783 18.4948 24.3969 17.7694C23.4156 17.0228 22.4769 16.3614 21.5809 15.7854ZM16.2369 22.7934L19.1169 23.5294C18.9036 24.7454 18.6263 26.0361 18.2849 27.4014C17.9649 28.7454 17.5809 30.0361 17.1329 31.2734C16.6849 32.5108 16.1836 33.5988 15.6289 34.5374L12.6849 33.4174C13.2823 32.5001 13.8049 31.4441 14.2529 30.2494C14.7223 29.0548 15.1276 27.8174 15.4689 26.5374C15.8103 25.2361 16.0663 23.9881 16.2369 22.7934ZM35.1489 25.6414L37.8689 24.3614C38.5943 25.3854 39.2876 26.4948 39.9489 27.6894C40.6316 28.8841 41.2289 30.0574 41.7409 31.2094C42.2743 32.3614 42.6903 33.3961 42.9889 34.3134L40.0449 35.7534C39.7889 34.8361 39.4049 33.7908 38.8929 32.6174C38.3809 31.4441 37.7943 30.2494 37.1329 29.0334C36.4929 27.8174 35.8316 26.6868 35.1489 25.6414ZM36.7809 15.4654L39.8209 16.6814C38.4983 19.1774 36.9836 21.6201 35.2769 24.0094C33.5916 26.3774 31.6929 28.6388 29.5809 30.7934C27.4903 32.9268 25.2076 34.9108 22.7329 36.7454C20.2583 38.5588 17.5916 40.1588 14.7329 41.5454C14.5836 41.2894 14.3916 41.0121 14.1569 40.7134C13.9223 40.4361 13.6769 40.1588 13.4209 39.8814C13.1863 39.5828 12.9623 39.3374 12.7489 39.1454C15.4796 37.8868 18.0503 36.3828 20.4609 34.6334C22.8929 32.8841 25.1329 30.9748 27.1809 28.9054C29.2289 26.8148 31.0636 24.6281 32.6849 22.3454C34.3063 20.0628 35.6716 17.7694 36.7809 15.4654Z" fill="#8D5657"/>
</svg>
