<svg width="56" height="56" viewBox="0 0 56 56" fill="none" xmlns="http://www.w3.org/2000/svg">
<circle cx="27.553" cy="27.553" r="25.553" stroke="#566D8D" stroke-width="4"/>
<path d="M31.1169 31.8814L34.0289 30.5694C34.9036 31.7214 35.7996 32.9588 36.7169 34.2814C37.6343 35.6041 38.4876 36.8948 39.2769 38.1534C40.0663 39.4121 40.7169 40.5321 41.2289 41.5134L38.1569 43.1774C37.6663 42.1748 37.0263 41.0228 36.2369 39.7214C35.4689 38.3988 34.6263 37.0548 33.7089 35.6894C32.8129 34.3241 31.9489 33.0548 31.1169 31.8814ZM21.6449 14.4094L25.0049 15.4654C24.2369 17.2361 23.3303 18.9748 22.2849 20.6814C21.2609 22.3881 20.1623 23.9881 18.9889 25.4814C17.8369 26.9534 16.6636 28.2441 15.4689 29.3534C15.2983 29.1188 15.0423 28.8414 14.7009 28.5214C14.3809 28.2014 14.0503 27.8921 13.7089 27.5934C13.3676 27.2734 13.0583 27.0174 12.7809 26.8254C13.9543 25.8441 15.0956 24.6921 16.2049 23.3694C17.3143 22.0468 18.3276 20.6174 19.2449 19.0814C20.1836 17.5454 20.9836 15.9881 21.6449 14.4094ZM16.9089 41.8974C16.8236 41.6628 16.7063 41.3428 16.5569 40.9374C16.4289 40.5534 16.2903 40.1481 16.1409 39.7214C15.9916 39.2948 15.8316 38.9321 15.6609 38.6334C16.1516 38.5054 16.6316 38.2174 17.1009 37.7694C17.5703 37.3001 18.1249 36.6921 18.7649 35.9454C19.1063 35.5828 19.5863 34.9961 20.2049 34.1854C20.8449 33.3534 21.5489 32.3614 22.3169 31.2094C23.0849 30.0574 23.8636 28.8201 24.6529 27.4974C25.4423 26.1748 26.1569 24.8414 26.7969 23.4974L30.2849 24.9694C29.2396 26.8254 28.1089 28.6708 26.8929 30.5054C25.6769 32.3188 24.4183 34.0468 23.1169 35.6894C21.8369 37.3108 20.5569 38.7721 19.2769 40.0734V40.1694C19.2769 40.1694 19.1489 40.2334 18.8929 40.3614C18.6583 40.4681 18.3809 40.6068 18.0609 40.7774C17.7623 40.9481 17.4956 41.1294 17.2609 41.3214C17.0263 41.5348 16.9089 41.7268 16.9089 41.8974ZM16.9089 41.8974L16.8129 39.3374L18.9249 38.1534L37.5809 37.0334C37.6449 37.5028 37.7409 38.0148 37.8689 38.5694C38.0183 39.1241 38.1463 39.5721 38.2529 39.9134C35.2663 40.1268 32.6956 40.3188 30.5409 40.4894C28.3863 40.6388 26.5623 40.7668 25.0689 40.8734C23.5969 41.0014 22.3809 41.1081 21.4209 41.1934C20.4609 41.2788 19.6929 41.3534 19.1169 41.4174C18.5409 41.5028 18.0823 41.5774 17.7409 41.6414C17.4209 41.7054 17.1436 41.7908 16.9089 41.8974ZM31.1169 14.3454H34.7009C35.1916 15.9668 35.8529 17.5454 36.6849 19.0814C37.5169 20.5961 38.4769 21.9828 39.5649 23.2414C40.6529 24.5001 41.8369 25.5348 43.1169 26.3454C42.8823 26.5588 42.6156 26.8468 42.3169 27.2094C42.0183 27.5508 41.7303 27.9134 41.4529 28.2974C41.1969 28.6601 40.9729 29.0014 40.7809 29.3214C39.4583 28.2974 38.2209 27.0814 37.0689 25.6734C35.9169 24.2441 34.8929 22.7081 33.9969 21.0654C33.1223 19.4228 32.4076 17.7588 31.8529 16.0734H31.1169V14.3454ZM26.7649 14.3454H33.6449V17.4814H26.7649V14.3454Z" fill="#566D8D"/>
</svg>
