<svg width="116" height="116" viewBox="0 0 116 116" fill="none" xmlns="http://www.w3.org/2000/svg">
<path d="M98.5592 98.2547C98.5086 98.3057 98.4589 98.3578 98.408 98.4087C98.2822 98.5345 98.1549 98.6585 98.0282 98.783C98.2064 98.608 98.3833 98.4319 98.5592 98.2547ZM115.43 60.0661C114.762 73.8179 109.21 87.4141 98.7816 98.0296C103.967 92.7489 108.13 86.5072 111.007 79.6193C113.62 73.366 115.104 66.7467 115.43 60.0661ZM58.6823 115.482C69.6917 115.209 80.4305 111.795 89.6258 105.629C92.2905 103.842 94.7918 101.846 97.1098 99.6668C86.2733 109.865 72.5083 115.141 58.6823 115.482ZM57.4994 115.499C57.8209 115.498 58.1422 115.494 58.4634 115.487C57.8147 115.501 57.166 115.503 56.5174 115.495C56.8445 115.499 57.1718 115.501 57.4994 115.499ZM18.0658 100.048C20.3534 102.192 22.8237 104.153 25.4572 105.907C34.6106 112.001 45.335 115.323 56.3565 115.493C42.5371 115.281 28.8186 110.137 18.0658 100.048ZM99.5798 17.5755C109.808 28.2238 115.103 41.8737 115.477 55.6722C115.391 52.5159 115.047 49.3604 114.439 46.2382C112.334 35.4299 107.173 25.4868 99.5798 17.5755ZM62.9145 52.5849L91.1166 57.6057L62.9201 62.9208L57.5367 91.1857L52.4654 63.034L24.3137 57.9627L52.493 52.6304L57.826 24.4504L62.9145 52.5849ZM58.9302 0.00483374C73.3969 0.173982 87.7697 5.746 98.7616 16.7379C88.1969 6.17315 73.9086 0.181174 58.9302 0.00483374ZM17.1121 99.1331C16.9868 99.01 16.8616 98.8867 16.7372 98.7622C16.6865 98.7116 16.6364 98.6604 16.5859 98.6096C16.7602 98.7852 16.9355 98.9597 17.1121 99.1331ZM15.0571 97.009C15.4851 97.4752 15.9214 97.934 16.365 98.3859C15.9198 97.9326 15.4841 97.4733 15.0571 97.009ZM0.0435036 60.5364C0.308683 67.2244 1.73768 73.8412 4.29995 80.0812C6.86099 86.3181 10.4863 92.0135 14.9839 96.9303C5.53737 86.6191 0.560475 73.6667 0.0435036 60.5364ZM0.00966748 59.3852C0.010566 59.4313 0.0114216 59.4773 0.0124296 59.5233C0.011754 59.4927 0.0109849 59.4621 0.010358 59.4315L0.00966748 59.3852ZM19.1761 15.1054C29.7374 5.52041 42.9464 0.493768 56.2481 0.0352172C42.5203 0.510629 29.378 5.86092 19.1761 15.1054ZM16.2572 17.9428C8.59946 25.919 3.35597 35.905 1.15803 46.7284C0.526594 49.8379 0.153933 52.9781 0.0379794 56.1169C0.544335 42.3365 5.95527 28.6648 16.2572 17.9428ZM17.0907 17.0914C17.7694 16.4128 18.4608 15.7547 19.1637 15.1165C18.4582 15.7561 17.7673 16.4149 17.0907 17.0914Z" fill="white"/>
</svg>
