<svg width="94" height="27" viewBox="0 0 94 27" fill="none" xmlns="http://www.w3.org/2000/svg">
<g clip-path="url(#clip0_560_121)">
<path d="M11.8902 13.8244C11.6163 11.451 10.1095 10.2908 7.34339 10.2908C4.90447 10.2908 3.34067 11.2696 3.34067 12.7662C3.34067 14.0323 4.2995 14.7805 6.62807 15.2718L9.58826 15.8916C11.7532 16.3565 12.849 16.7949 13.7241 17.5432C14.2058 17.948 14.59 18.4548 14.8488 19.0263C15.1075 19.5979 15.2342 20.2197 15.2195 20.8462C15.2195 24.1001 12.4267 26.1107 7.99022 26.1107C3.23414 26.1107 0.380486 23.8393 0 19.7124H2.71287C2.98682 22.4486 4.90447 23.9678 8.03968 23.9678C10.6688 23.9678 12.5332 22.7547 12.5332 21.0276C12.5332 19.7351 11.5478 18.8848 9.63011 18.4464L5.53227 17.5167C2.1916 16.7684 0.684876 15.3739 0.684876 13.0534C0.684876 10.0301 3.34828 8.14045 7.53363 8.14045C11.719 8.14045 13.9715 9.97337 14.5498 13.8433L11.8902 13.8244Z" fill="black"/>
<path d="M21.2314 25.7252H18.644V8.50703H21.2314V25.7252Z" fill="black"/>
<path d="M32.1052 25.7252H29.5027V10.6499H23.7954V8.50703H37.8049V10.6499H32.0976L32.1052 25.7252Z" fill="black"/>
<path d="M52.4084 13.9038C51.8605 11.6362 50.0227 10.2644 47.5039 10.2644C43.9958 10.2644 41.6939 12.9476 41.6939 16.9989C41.6939 21.1561 43.9768 23.9678 47.4012 23.9678C50.251 23.9678 52.2257 22.1614 52.6367 19.1682H55.2658C55.1489 20.6253 54.6053 22.0165 53.702 23.1704C52.1801 25.1318 50.0874 26.1107 47.3479 26.1107C44.6084 26.1107 42.4701 25.1318 40.9367 23.1704C39.5932 21.4138 38.8879 19.2573 38.9354 17.0519C38.9354 11.8139 42.4701 8.12155 47.4849 8.12155C51.3735 8.12155 54.1434 10.185 54.9348 13.6695L52.4084 13.9038Z" fill="black"/>
<path d="M90.7044 25.7252L83.224 14.8599C82.3223 13.5145 81.7744 12.6642 81.3216 11.8894C81.3749 12.6453 81.4015 14.2892 81.4015 15.1433V25.7252H78.9512V8.50703H81.6146L88.7906 18.9868C89.5664 20.1377 90.2827 21.3272 90.9365 22.5506C90.8832 21.5945 90.8528 20.5363 90.8528 19.3232V8.61285H93.3183V25.7252H90.7044Z" fill="black"/>
<path d="M70.0668 0.816322C70.5477 0.471761 71.0946 0.228626 71.6737 0.101886C72.2528 -0.0248532 72.8519 -0.0325148 73.4341 0.0793734C73.4341 0.0793734 73.1297 2.25621 71.5849 3.42777C70.0401 4.59932 67.8447 4.32344 67.8447 4.32344C68.1924 3.78887 68.5112 3.23633 68.7998 2.66814C69.0889 2.12393 69.496 1.25093 70.0668 0.816322Z" fill="black"/>
<path d="M66.3609 2.59255C66.1361 2.43081 65.8804 2.31652 65.6095 2.25672C65.3386 2.19692 65.0582 2.19288 64.7856 2.24486C64.8824 2.85 65.1877 3.40301 65.6493 3.80946C66.165 4.14599 66.7823 4.29427 67.3958 4.22895C67.2334 3.98467 67.0836 3.7324 66.9468 3.47311C66.8152 3.14232 66.6157 2.84242 66.3609 2.59255Z" fill="black"/>
<path d="M66.5356 7.78142C66.7449 7.78142 66.958 7.78142 67.1673 7.8041C66.9216 6.69838 67.0723 5.54217 67.5934 4.53507C66.5851 5.34004 66.0943 6.57585 65.8394 7.81166C66.0715 7.79276 66.3035 7.78142 66.5356 7.78142Z" fill="black"/>
<path d="M66.5359 8.15556C64.7253 8.15556 62.9553 8.68885 61.4499 9.68798C59.9444 10.6871 58.7711 12.1072 58.0782 13.7687C57.3853 15.4302 57.204 17.2585 57.5573 19.0223C57.9105 20.7861 58.7824 22.4063 60.0626 23.678C61.3429 24.9496 62.9741 25.8156 64.7499 26.1665C66.5257 26.5173 68.3664 26.3372 70.0391 25.649C71.7119 24.9608 73.1416 23.7954 74.1475 22.3001C75.1535 20.8048 75.6904 19.0468 75.6904 17.2484C75.6904 14.8368 74.7259 12.524 73.0091 10.8188C71.2923 9.11355 68.9638 8.15556 66.5359 8.15556ZM70.276 20.9633L66.5359 18.4048L62.7805 20.9633L65.3563 17.2484L62.7805 13.5334L66.5206 16.0882L70.2608 13.5334L67.6887 17.2484L70.276 20.9633Z" fill="black"/>
</g>
<defs>
<clipPath id="clip0_560_121">
<rect width="93.3333" height="26.3374" fill="white"/>
</clipPath>
</defs>
</svg>
