<svg width="12" height="20" viewBox="0 0 12 20" fill="none" xmlns="http://www.w3.org/2000/svg">
<path d="M8.62207 0.75C9.3132 0.750007 10.0234 0.806709 10.5625 0.864258C10.8314 0.892966 11.057 0.921875 11.2148 0.943359C11.227 0.94501 11.2387 0.94668 11.25 0.948242V3.40918H9.87891C9.03187 3.40918 8.43293 3.65352 8.04883 4.06445C7.66807 4.47185 7.5332 5.00648 7.5332 5.51758V7.99805H11.0557L10.5664 10.9365L7.7832 10.9375H7.5332V19.25H4.01465V10.9375H0.75V7.99902H4.01465V5.12793C4.01472 3.69335 4.47536 2.60822 5.26172 1.87988C6.05105 1.14894 7.19879 0.75 8.62207 0.75Z" fill="white" stroke="white" stroke-width="0.5"/>
</svg>
