<svg width="20" height="18" viewBox="0 0 20 18" fill="none" xmlns="http://www.w3.org/2000/svg">
<path fill-rule="evenodd" clip-rule="evenodd" d="M16.875 0H3.125C1.39911 0 0 1.2592 0 2.8125V15.1875C0 16.7408 1.39911 18 3.125 18H16.875C18.6009 18 20 16.7408 20 15.1875V2.8125C20 1.2592 18.6009 0 16.875 0ZM15.125 9C15.125 10.1812 14.0625 11.1375 12.75 11.1375C11.4375 11.1375 10.375 10.1812 10.375 9C10.375 7.81875 11.4375 6.8625 12.75 6.8625C14.0625 6.8625 15.125 7.81875 15.125 9ZM7.3125 11.1375C8.62499 11.1375 9.6875 10.1812 9.6875 9C9.6875 7.81875 8.5625 6.8625 7.3125 6.8625C5.99999 6.8625 4.9375 7.81875 4.9375 9C4.9375 10.1812 5.99999 11.1375 7.3125 11.1375Z" fill="white"/>
</svg>
