<svg width="20" height="20" viewBox="0 0 20 20" fill="none" xmlns="http://www.w3.org/2000/svg">
<path fill-rule="evenodd" clip-rule="evenodd" d="M5.98796 0.810353C7.0255 0.764968 7.35631 0.754883 9.99926 0.754883C12.6422 0.754883 12.973 0.765809 14.0097 0.810353C15.0463 0.854898 15.754 1.01206 16.3731 1.23983C17.0215 1.47264 17.6097 1.83656 18.0962 2.30722C18.5915 2.76863 18.9736 3.3267 19.2177 3.9436C19.4583 4.53193 19.6228 5.2043 19.6706 6.18764C19.7184 7.17519 19.729 7.48952 19.729 9.99999C19.729 12.5113 19.7175 12.8256 19.6706 13.8115C19.6237 14.7948 19.4583 15.4672 19.2177 16.0555C18.9736 16.6725 18.5909 17.2315 18.0962 17.6936C17.6097 18.1643 17.0215 18.5273 16.3731 18.7593C15.754 18.9879 15.0463 19.1442 14.0114 19.1896C12.973 19.235 12.6422 19.2451 9.99926 19.2451C7.35631 19.2451 7.0255 19.2342 5.98796 19.1896C4.95307 19.1451 4.24545 18.9879 3.62629 18.7593C2.97698 18.5273 2.38868 18.1636 1.90236 17.6936C1.40736 17.2319 1.02431 16.6732 0.7799 16.0564C0.540195 15.468 0.375674 14.7957 0.32791 13.8123C0.280145 12.8248 0.269531 12.5105 0.269531 9.99999C0.269531 7.48868 0.28103 7.17435 0.32791 6.18932C0.374789 5.2043 0.540195 4.53193 0.7799 3.9436C1.02467 3.32677 1.40801 2.76806 1.90324 2.30638C2.38888 1.83614 2.97658 1.47217 3.6254 1.23983C4.24457 1.01206 4.95219 0.855738 5.98707 0.810353H5.98796ZM13.931 2.47447C12.9049 2.42993 12.5971 2.42068 9.99926 2.42068C7.40142 2.42068 7.09361 2.42993 6.06757 2.47447C5.11847 2.51565 4.60368 2.6661 4.26049 2.79301C3.80673 2.9611 3.48211 3.16029 3.14157 3.48387C2.81876 3.78228 2.57033 4.14555 2.41449 4.54706C2.28093 4.87316 2.1226 5.36231 2.07926 6.26412C2.03238 7.23906 2.02265 7.53154 2.02265 9.99999C2.02265 12.4684 2.03238 12.7609 2.07926 13.7358C2.1226 14.6377 2.28093 15.1268 2.41449 15.4529C2.57017 15.8538 2.81872 16.2177 3.14157 16.5161C3.45558 16.8229 3.83857 17.059 4.26049 17.207C4.60368 17.3339 5.11847 17.4843 6.06757 17.5255C7.09361 17.57 7.40054 17.5793 9.99926 17.5793C12.598 17.5793 12.9049 17.57 13.931 17.5255C14.88 17.4843 15.3948 17.3339 15.738 17.207C16.1918 17.0389 16.5164 16.8397 16.857 16.5161C17.1798 16.2177 17.4284 15.8538 17.584 15.4529C17.7176 15.1268 17.8759 14.6377 17.9193 13.7358C17.9661 12.7609 17.9759 12.4684 17.9759 9.99999C17.9759 7.53154 17.9661 7.23906 17.9193 6.26412C17.8759 5.36231 17.7176 4.87316 17.584 4.54706C17.4071 4.1159 17.1975 3.80745 16.857 3.48387C16.5429 3.17716 16.1606 2.94111 15.738 2.79301C15.3948 2.6661 14.88 2.51565 13.931 2.47447ZM8.75651 12.85C9.45056 13.1245 10.2234 13.1616 10.943 12.9548C11.6626 12.7481 12.2843 12.3104 12.702 11.7164C13.1197 11.1225 13.3074 10.4092 13.2331 9.69835C13.1588 8.98751 12.8271 8.32324 12.2946 7.81898C11.9551 7.49664 11.5447 7.24983 11.0928 7.09631C10.6409 6.94278 10.1589 6.88637 9.68127 6.93113C9.20369 6.97589 8.74249 7.12071 8.33088 7.35515C7.91927 7.58961 7.56749 7.90786 7.30086 8.28699C7.03422 8.66613 6.85938 9.09673 6.78891 9.54778C6.71843 9.99884 6.75409 10.4591 6.8933 10.8955C7.03251 11.3319 7.27182 11.7335 7.594 12.0715C7.91618 12.4095 8.31321 12.6753 8.75651 12.85ZM6.46295 6.63981C6.92734 6.19855 7.47866 5.84852 8.08542 5.60971C8.69218 5.3709 9.34251 5.24798 9.99926 5.24798C10.656 5.24798 11.3063 5.37089 11.9131 5.60971C12.5199 5.84852 13.0712 6.19855 13.5356 6.63981C14 7.08108 14.3683 7.60493 14.6197 8.18147C14.871 8.75801 15.0004 9.37594 15.0004 9.99999C15.0004 10.624 14.871 11.242 14.6197 11.8185C14.3683 12.395 14 12.9189 13.5356 13.3602C12.5977 14.2513 11.3256 14.752 9.99926 14.752C8.67289 14.752 7.40084 14.2513 6.46295 13.3602C5.52506 12.469 4.99816 11.2603 4.99816 9.99999C4.99816 8.73968 5.52506 7.53098 6.46295 6.63981ZM16.1095 5.95567C16.2246 5.85252 16.3167 5.72848 16.3805 5.59089C16.4442 5.4533 16.4782 5.30496 16.4805 5.15465C16.4828 5.00434 16.4534 4.85513 16.3939 4.71583C16.3344 4.57653 16.2461 4.44999 16.1343 4.3437C16.0224 4.2374 15.8892 4.15351 15.7426 4.097C15.596 4.04049 15.439 4.0125 15.2808 4.01469C15.1226 4.01688 14.9665 4.04921 14.8217 4.10976C14.6769 4.17031 14.5463 4.25785 14.4378 4.3672C14.2267 4.57986 14.1111 4.86233 14.1156 5.15465C14.12 5.44697 14.2442 5.72612 14.4618 5.93285C14.6794 6.13957 14.9732 6.25759 15.2808 6.26185C15.5884 6.26612 15.8857 6.15628 16.1095 5.95567Z" fill="white"/>
</svg>
