<svg width="20" height="18" viewBox="0 0 20 18" fill="none" xmlns="http://www.w3.org/2000/svg">
<path fill-rule="evenodd" clip-rule="evenodd" d="M3.46875 0H16.5312C18.1708 0 19.5 1.2592 19.5 2.8125V15.1875C19.5 16.7408 18.1708 18 16.5312 18H3.46875C1.82915 18 0.5 16.7408 0.5 15.1875V2.8125C0.5 1.2592 1.82915 0 3.46875 0ZM10.4108 6.75415C9.55994 7.08942 7.85946 7.78334 5.30933 8.83592C4.89522 8.99192 4.6783 9.14454 4.65855 9.29378C4.62518 9.54598 4.95856 9.64529 5.41253 9.78053C5.47428 9.79893 5.53827 9.81799 5.60386 9.83819C6.05051 9.97573 6.65132 10.1366 6.96366 10.143C7.24698 10.1488 7.5632 10.0382 7.91231 9.81107C10.295 8.28735 11.5249 7.51719 11.6021 7.50059C11.6566 7.48887 11.7321 7.47414 11.7833 7.51721C11.8344 7.56028 11.8294 7.64185 11.824 7.66373C11.7909 7.79711 10.4823 8.94971 9.80508 9.54617C9.59396 9.73212 9.4442 9.86402 9.41359 9.89414C9.34501 9.96162 9.27512 10.0255 9.20794 10.0868C8.793 10.4658 8.48184 10.7499 9.22517 11.214C9.58239 11.437 9.86824 11.6214 10.1534 11.8054C10.4648 12.0063 10.7755 12.2067 11.1774 12.4563C11.2798 12.5199 11.3776 12.586 11.4728 12.6503C11.8352 12.8951 12.1609 13.115 12.5631 13.0799C12.7969 13.0595 13.0383 12.8513 13.161 12.2303C13.4507 10.7626 14.0204 7.58255 14.152 6.27214C14.1636 6.15733 14.1491 6.01039 14.1374 5.94589C14.1257 5.88139 14.1014 5.78949 14.0129 5.72146C13.9081 5.64089 13.7463 5.6239 13.6739 5.62505C13.3449 5.6306 12.8401 5.79689 10.4108 6.75415Z" fill="white"/>
</svg>
