<svg width="20" height="16" viewBox="0 0 20 16" fill="none" xmlns="http://www.w3.org/2000/svg">
<path d="M19.729 2.01053C19.0134 2.31183 18.2446 2.51541 17.4365 2.60743C18.2703 2.13332 18.8942 1.38713 19.1916 0.50809C18.4082 0.950262 17.5507 1.2615 16.6566 1.42828C16.0553 0.818239 15.2588 0.413894 14.3909 0.278021C13.523 0.142149 12.6321 0.282351 11.8566 0.676862C11.0811 1.07137 10.4644 1.69812 10.1022 2.45979C9.74004 3.22147 9.65263 4.07546 9.85357 4.88917C8.2661 4.81344 6.71313 4.42138 5.29545 3.73845C3.87777 3.05552 2.62705 2.09698 1.62448 0.925026C1.28167 1.48691 1.08456 2.13837 1.08456 2.83218C1.08417 3.45677 1.24605 4.07179 1.55581 4.62267C1.86558 5.17356 2.31366 5.64327 2.8603 5.99015C2.22634 5.97098 1.60637 5.80821 1.05199 5.51539V5.56425C1.05193 6.44026 1.37083 7.28931 1.95459 7.96733C2.53834 8.64536 3.351 9.11059 4.25467 9.2841C3.66657 9.43534 3.04999 9.45761 2.4515 9.34925C2.70646 10.103 3.2031 10.7621 3.87189 11.2344C4.54069 11.7066 5.34815 11.9683 6.18124 11.9828C4.76702 13.0377 3.02046 13.6099 1.22254 13.6074C0.904051 13.6075 0.585836 13.5898 0.269531 13.5544C2.09453 14.6694 4.21896 15.2611 6.38864 15.2588C13.7333 15.2588 17.7484 9.47873 17.7484 4.46572C17.7484 4.30286 17.7441 4.13836 17.7364 3.9755C18.5174 3.43884 19.1916 2.77428 19.7273 2.01297L19.729 2.01053Z" fill="white"/>
</svg>
