<svg width="20" height="14" viewBox="0 0 20 14" fill="none" xmlns="http://www.w3.org/2000/svg">
<path d="M19.3215 2.76804C19.2114 2.39461 18.9967 2.05652 18.7005 1.78972C18.3959 1.51472 18.0226 1.318 17.6158 1.21814C16.0933 0.836828 9.99359 0.836828 9.99359 0.836828C7.45068 0.809337 4.9084 0.930249 2.3811 1.19888C1.97428 1.30612 1.60166 1.50723 1.29638 1.78433C0.99642 2.05856 0.779152 2.39674 0.665654 2.76726C0.393009 4.1629 0.26054 5.57999 0.270032 6.99944C0.260303 8.41761 0.392448 9.83424 0.665654 11.2316C0.77672 11.6006 0.993178 11.9372 1.29395 12.2092C1.59472 12.4811 1.96926 12.6775 2.3811 12.7815C3.92386 13.162 9.99359 13.162 9.99359 13.162C12.5397 13.1896 15.0852 13.0687 17.6158 12.8C18.0226 12.7001 18.3959 12.5034 18.7005 12.2284C19.0005 11.9565 19.2137 11.6183 19.3207 11.2501C19.6005 9.855 19.7365 8.43732 19.7269 7.01715C19.7479 5.59098 19.6121 4.16661 19.3215 2.76726V2.76804ZM8.05439 9.63703V4.36261L13.1294 7.00021L8.05439 9.63703Z" fill="white"/>
</svg>
