<svg width="1280" height="801" viewBox="0 0 1280 801" fill="none" xmlns="http://www.w3.org/2000/svg">
<g opacity="0.4">
<line x1="-4.37114e-08" y1="80.5" x2="1280" y2="80.4999" stroke="white" stroke-opacity="0.8"/>
<line x1="-4.37114e-08" y1="160.5" x2="1280" y2="160.5" stroke="white" stroke-opacity="0.8"/>
<line x1="-4.37114e-08" y1="240.5" x2="1280" y2="240.5" stroke="white" stroke-opacity="0.8"/>
<line x1="-4.37114e-08" y1="320.5" x2="1280" y2="320.5" stroke="white" stroke-opacity="0.8"/>
<line x1="-4.37114e-08" y1="400.5" x2="1280" y2="400.5" stroke="white" stroke-opacity="0.8"/>
<line x1="-4.37114e-08" y1="480.5" x2="1280" y2="480.5" stroke="white" stroke-opacity="0.8"/>
<line x1="-4.37114e-08" y1="560.5" x2="1280" y2="560.5" stroke="white" stroke-opacity="0.8"/>
<line x1="-4.37114e-08" y1="640.5" x2="1280" y2="640.5" stroke="white" stroke-opacity="0.8"/>
<line x1="-4.37114e-08" y1="720.5" x2="1280" y2="720.5" stroke="white" stroke-opacity="0.8"/>
<line x1="-4.37114e-08" y1="800.5" x2="1280" y2="800.5" stroke="white" stroke-opacity="0.8"/>
<line x1="80" y1="832" x2="80" y2="-2.18557e-08" stroke="white" stroke-opacity="0.8"/>
<line x1="159.5" y1="832" x2="159.5" y2="-2.18557e-08" stroke="white" stroke-opacity="0.8"/>
<line x1="240.5" y1="832" x2="240.5" y2="-2.18557e-08" stroke="white" stroke-opacity="0.8"/>
<line x1="320.5" y1="832" x2="320.5" y2="-2.18557e-08" stroke="white" stroke-opacity="0.8"/>
<line x1="400.5" y1="832" x2="400.5" y2="-2.18557e-08" stroke="white" stroke-opacity="0.8"/>
<line x1="480.5" y1="832" x2="480.5" y2="-2.18557e-08" stroke="white" stroke-opacity="0.8"/>
<line x1="559.5" y1="832" x2="559.5" y2="-2.18557e-08" stroke="white" stroke-opacity="0.8"/>
<line x1="639.5" y1="832" x2="639.5" y2="-2.18557e-08" stroke="white" stroke-opacity="0.8"/>
<line x1="720.5" y1="832" x2="720.5" y2="-2.18557e-08" stroke="white" stroke-opacity="0.8"/>
<line x1="799.5" y1="832" x2="799.5" y2="-2.18557e-08" stroke="white" stroke-opacity="0.8"/>
<line x1="879.5" y1="832" x2="879.5" y2="-2.18557e-08" stroke="white" stroke-opacity="0.8"/>
<line x1="960.5" y1="832" x2="960.5" y2="-2.18557e-08" stroke="white" stroke-opacity="0.8"/>
<line x1="1039.5" y1="832" x2="1039.5" y2="-2.18557e-08" stroke="white" stroke-opacity="0.8"/>
<line x1="1119.5" y1="832" x2="1119.5" y2="-2.18557e-08" stroke="white" stroke-opacity="0.8"/>
<line x1="1200.5" y1="832" x2="1200.5" y2="-2.18557e-08" stroke="white" stroke-opacity="0.8"/>
</g>
</svg>
